<svg xmlns="http://www.w3.org/2000/svg">
    <symbol id="web-design-icon" viewBox="0 0 125 64" fill="none">
        <path fill-rule="evenodd" clip-rule="evenodd" d="M3.07154 59.3984H14.4951C13.6511 59.1874 13.0182 58.4038 13.0182 57.4895V1.96923C13.0282 0.894192 13.9124 0 14.9974 0H97.5645C98.6395 0 99.5337 0.894192 99.5337 1.96923V18.7077L96.4392 19.6521V10.1275H16.394V56.9268H96.4392V44.8502L97.464 44.6794C98.1572 44.5589 98.8103 44.3378 99.4031 44.0264L99.5437 43.9962V57.4694C99.5437 58.3837 98.9108 59.1573 98.0668 59.3783H110.013C111.279 59.3783 112.314 60.4132 112.314 61.6791C112.314 62.9551 111.279 63.9799 110.013 63.9799H3.07154C1.8056 64 0.770752 62.9652 0.770752 61.6892C0.770752 60.4333 1.8056 59.3984 3.07154 59.3984ZM80.1328 35.2653C81.1877 36.4006 82.3632 38.7215 82.1321 40.7309L96.399 38.3096C95.8665 34.2706 94.681 30.5633 92.3902 27.4185C87.7686 30.5532 85.1161 32.5024 80.1328 35.2653ZM57.0546 46.8998C63.7259 44.9206 70.8593 52.0038 76.5359 46.508C78.043 45.0512 79.0678 42.7002 78.9372 40.4998C78.8769 39.6157 78.6458 38.7617 78.1736 38.0082C77.9626 37.6766 77.7114 37.3652 77.4201 37.0537C73.783 33.3463 68.1466 34.8132 64.4392 37.6565C61.0332 40.2788 58.5918 44.1771 57.0546 46.8998ZM94.2891 27.0568C96.4392 30.4628 97.7956 33.9994 98.2879 37.6867L121.467 25.1177C123.386 24.2537 124.611 23.3695 124.119 20.8578C123.737 20.0339 123.215 19.4813 122.552 19.2C121.899 18.9187 121.115 18.9187 120.191 19.2L94.2891 27.0568ZM23.2562 20.7774H89.8182C90.21 20.7774 90.5616 20.9181 90.8329 21.1592C90.0392 21.3601 89.2756 21.7017 88.5723 22.2242L88.4317 22.3347C85.2467 24.4948 87.4471 22.9878 86.6131 23.5604L86.1108 23.9121H24.8235V40.1181H53.6486C52.9152 41.2132 52.2722 42.2782 51.7196 43.2327H23.2562C22.3921 43.2327 21.6989 42.5294 21.6989 41.6754V22.3347C21.6989 21.4807 22.3921 20.7774 23.2562 20.7774ZM81.1274 17.1504C80.2634 17.1504 79.5701 16.4571 79.5701 15.5931C79.5701 14.729 80.2734 14.0358 81.1274 14.0358H87.4069C88.2709 14.0358 88.9642 14.729 88.9642 15.5931C88.9642 16.4571 88.2709 17.1504 87.4069 17.1504H81.1274ZM65.6147 17.1504C64.7507 17.1504 64.0574 16.4571 64.0574 15.5931C64.0574 14.729 64.7607 14.0358 65.6147 14.0358H71.8941C72.7582 14.0358 73.4514 14.729 73.4514 15.5931C73.4514 16.4571 72.7481 17.1504 71.8941 17.1504H65.6147ZM50.0919 17.1504C49.2279 17.1504 48.5346 16.4571 48.5346 15.5931C48.5346 14.729 49.2279 14.0358 50.0919 14.0358H56.3714C57.2354 14.0358 57.9287 14.729 57.9287 15.5931C57.9287 16.4571 57.2354 17.1504 56.3714 17.1504H50.0919ZM25.989 4.73218C26.853 4.73218 27.5563 5.43548 27.5563 6.29953C27.5563 7.16358 26.853 7.86688 25.989 7.86688C25.1249 7.86688 24.4216 7.16358 24.4216 6.29953C24.4216 5.43548 25.135 4.73218 25.989 4.73218ZM31.2938 4.73218C32.1579 4.73218 32.8511 5.43548 32.8511 6.29953C32.8511 7.16358 32.1478 7.86688 31.2938 7.86688C30.4398 7.86688 29.7265 7.16358 29.7265 6.29953C29.7265 5.43548 30.4298 4.73218 31.2938 4.73218ZM20.6941 4.73218C21.5582 4.73218 22.2615 5.43548 22.2615 6.29953C22.2615 7.16358 21.5582 7.86688 20.6941 7.86688C19.8301 7.86688 19.1268 7.16358 19.1268 6.29953C19.1268 5.43548 19.8301 4.73218 20.6941 4.73218ZM53.297 60.2625H59.7773C60.3902 60.2625 60.8825 60.7648 60.8825 61.3677C60.8825 61.9805 60.3802 62.4728 59.7773 62.4728H53.297C52.6841 62.4728 52.1918 61.9705 52.1918 61.3677C52.1918 60.7447 52.6841 60.2625 53.297 60.2625Z" fill="currentColor"/>
    </symbol>

    <symbol id="business-management-icon" viewBox="0 0 58 64" fill="none" xmlns="http://www.w3.org/2000/svg">
        <path fill-rule="evenodd" clip-rule="evenodd" d="M40.9567 41.2638C40.8586 41.5065 40.7037 41.7337 40.5023 41.9351L38.4419 43.9955L38.4316 44.0058C38.2302 44.2072 38.003 44.3621 37.7603 44.4602C37.5073 44.5687 37.2439 44.6255 36.9599 44.6255C36.6759 44.6255 36.4074 44.5687 36.1595 44.4602C35.9168 44.3518 35.6948 44.1969 35.5037 43.9955L34.1612 42.6684C34.0785 42.7045 33.9959 42.751 33.9185 42.7872C33.6913 42.8956 33.4537 42.9885 33.2265 43.0763C33.2162 43.0867 33.2059 43.0867 33.1904 43.0867C32.9632 43.1796 32.7205 43.2571 32.4571 43.3397C32.3745 43.3655 32.2919 43.3965 32.2041 43.412V45.0489C32.2041 45.3329 32.1473 45.6014 32.0492 45.8493C31.9511 46.092 31.7961 46.314 31.5948 46.5102L31.5741 46.5309C31.3727 46.722 31.1455 46.8769 30.9028 46.975C30.6549 47.0731 30.3916 47.1299 30.1231 47.1299H27.1797C26.8957 47.1299 26.6324 47.0731 26.3793 46.975C26.1366 46.8769 25.9094 46.722 25.708 46.5206C25.5066 46.3192 25.3517 46.092 25.2536 45.8493C25.1555 45.6014 25.0987 45.3381 25.0987 45.0489V43.1796C25.0058 43.1435 24.918 43.1176 24.825 43.0815C24.5823 42.9885 24.3448 42.8801 24.0969 42.7717C23.8542 42.6529 23.6167 42.5445 23.3895 42.4257C23.3172 42.3895 23.2449 42.3431 23.1726 42.3069L22.0211 43.4791L21.9953 43.5049C21.7939 43.696 21.5667 43.8406 21.324 43.9387C21.0813 44.0368 20.8179 44.0833 20.5442 44.0833C20.2706 44.0833 20.0072 44.0368 19.7645 43.9387C19.5218 43.8406 19.2946 43.7011 19.0932 43.5101C19.0829 43.4998 19.0726 43.4998 19.0726 43.4894L17.0174 41.4084C16.816 41.2174 16.6559 40.9902 16.5526 40.7475C16.4442 40.5048 16.3874 40.2311 16.3874 39.9367C16.3874 39.6527 16.4442 39.3842 16.5526 39.126C16.6611 38.873 16.816 38.6561 17.0174 38.4651L18.3341 37.1483C18.2877 37.0554 18.2515 36.9779 18.2154 36.8953C18.1173 36.6681 18.014 36.4305 17.9159 36.1775C17.8229 35.94 17.7351 35.6869 17.6629 35.4339C17.637 35.3513 17.6061 35.2635 17.5906 35.1809H15.9536C15.6696 35.1809 15.4011 35.1241 15.1533 35.026C14.9106 34.9279 14.6885 34.773 14.4923 34.5716L14.4716 34.5509C14.2806 34.3495 14.1257 34.1223 14.0275 33.8899C13.9294 33.6421 13.8726 33.3787 13.8726 33.1102V30.1669C13.8726 29.5833 14.074 29.0928 14.482 28.6952C14.6833 28.4938 14.9106 28.3389 15.1533 28.2408C15.4011 28.1427 15.6645 28.0858 15.9536 28.0858H17.8229C17.8591 27.9929 17.8849 27.9051 17.921 27.8122C18.014 27.5695 18.1224 27.3319 18.2309 27.0841C18.3496 26.8362 18.4581 26.6038 18.5768 26.3766C18.613 26.3043 18.6595 26.232 18.6956 26.1598L17.5234 25.0082L17.4976 24.9824C17.3066 24.781 17.162 24.5538 17.0639 24.3111C16.9657 24.0684 16.9193 23.8051 16.9193 23.5314C16.9193 23.2577 16.9657 22.9944 17.0639 22.7517C17.162 22.509 17.3014 22.2817 17.4924 22.0804C17.5028 22.07 17.5028 22.0597 17.5131 22.0597L19.5941 19.9994C19.7955 19.798 20.0227 19.6431 20.2654 19.5449C20.5184 19.4365 20.7818 19.3797 21.0658 19.3797C21.3498 19.3797 21.6183 19.4365 21.8662 19.5449C22.1089 19.6534 22.3309 19.8083 22.522 20.0097L23.8387 21.3264C23.9317 21.28 24.0091 21.2438 24.0918 21.2077C24.319 21.1096 24.5565 21.0063 24.8095 20.9082C25.0471 20.8152 25.3001 20.7274 25.5531 20.6552C25.6461 20.6293 25.7235 20.5984 25.8061 20.5829V18.9459C25.8061 18.6619 25.863 18.3934 25.9611 18.1456C26.0592 17.9029 26.2141 17.6808 26.4155 17.4846L26.4361 17.4639C26.6375 17.2729 26.8647 17.118 27.0971 17.0198C27.345 16.9217 27.6083 16.8649 27.8768 16.8649H30.8202C31.1042 16.8649 31.3675 16.9217 31.6206 17.0198C31.8633 17.118 32.0905 17.2729 32.2919 17.4743C32.4933 17.6756 32.6482 17.9029 32.7463 18.1456C32.8444 18.3934 32.9012 18.6568 32.9012 18.9459V20.8152C32.9941 20.8514 33.0819 20.8772 33.1749 20.9133C33.4176 21.0063 33.6551 21.1147 33.903 21.2232C34.1457 21.3419 34.3832 21.4504 34.6104 21.5691C34.6827 21.6053 34.755 21.6518 34.8273 21.6879L35.9788 20.5364C36.1802 20.335 36.4074 20.1801 36.6501 20.0716C36.9031 19.9632 37.1665 19.9064 37.4505 19.9064C37.7345 19.9064 37.9979 19.9632 38.2509 20.0716C38.5039 20.1801 38.7208 20.3247 38.9222 20.5364L40.9825 22.5967L40.9929 22.6071C41.1942 22.8085 41.3492 23.0357 41.4473 23.2784C41.5557 23.5314 41.6125 23.7947 41.6125 24.0787C41.6125 24.3628 41.5557 24.6313 41.4473 24.8791C41.3388 25.127 41.1839 25.3439 40.9825 25.5349L39.6658 26.8775C39.7019 26.9601 39.7484 27.0428 39.7845 27.1202C39.8775 27.3268 39.9756 27.554 40.0737 27.8018C40.084 27.8122 40.084 27.8225 40.084 27.838C40.177 28.0755 40.2648 28.3285 40.3371 28.5816C40.3629 28.6642 40.3939 28.752 40.4093 28.8346H42.0463C42.3303 28.8346 42.5988 28.8914 42.8467 28.9895C43.0893 29.0876 43.3114 29.2425 43.5076 29.4439L43.5283 29.4646C43.7193 29.666 43.8742 29.8932 43.9724 30.1255C44.0705 30.3734 44.1273 30.6368 44.1273 30.9053V33.8486C44.1273 34.1326 44.0705 34.396 43.9724 34.649C43.8742 34.8917 43.7193 35.1189 43.5179 35.3306C43.3166 35.532 43.0893 35.6869 42.8467 35.7851C42.5988 35.8832 42.3354 35.94 42.0463 35.94H40.177C40.1408 36.0329 40.115 36.1207 40.0789 36.2136C39.9859 36.4563 39.8878 36.6939 39.769 36.9417C39.6503 37.1844 39.5418 37.422 39.4231 37.6492C39.3869 37.7215 39.3404 37.7938 39.3043 37.8661L40.4558 39.0176C40.6572 39.219 40.8121 39.4462 40.9206 39.6889C41.029 39.9419 41.0858 40.2053 41.0858 40.4893C41.0858 40.7733 41.029 41.0366 40.9206 41.2897L40.9567 41.2638ZM23.72 59.9C17.162 58.6658 11.3992 55.1699 7.27331 50.2592C3.11646 45.3174 0.617188 38.9505 0.617188 32.0103C0.617188 25.4885 2.82213 19.4726 6.53489 14.6755C10.3199 9.77505 15.6748 6.14491 21.8507 4.54414L22.7698 8.08649C17.3943 9.48072 12.7314 12.641 9.43178 16.9114C6.20957 21.0838 4.29381 26.3198 4.29381 32.0103C4.29381 38.0675 6.46776 43.6134 10.0721 47.9045C13.5215 52.0097 18.2877 54.9789 23.7251 56.1562V52.3711L30.6395 58.0462L23.7251 63.7212L23.72 59.9ZM34.2799 4.12587C40.776 5.34969 46.4923 8.78877 50.613 13.6324C54.8318 18.5896 57.3776 25.0082 57.3776 32.0103C57.3776 38.1707 55.4153 43.8716 52.0795 48.5241C48.6559 53.3006 43.7865 56.9669 38.1063 58.893L37.5176 57.158L36.929 55.4229C37.0735 55.3765 37.2181 55.3248 37.3575 55.2732C42.1134 53.564 46.1928 50.4296 49.0897 46.3915C51.9917 42.3431 53.7009 37.3807 53.7009 32.0155C53.7009 25.9016 51.4908 20.3092 47.8245 16.0026C44.3803 11.9542 39.6554 9.03663 34.2748 7.86445V11.6289L27.3656 5.94869L34.2799 0.273682V4.12587ZM34.1353 32C34.1353 32.3563 34.0992 32.6971 34.0372 33.0276H34.0269C33.9649 33.3632 33.8617 33.6834 33.7377 33.9881C33.6035 34.3082 33.4486 34.6077 33.2678 34.8711C33.0974 35.1447 32.8857 35.3978 32.6585 35.625C32.421 35.8625 32.1783 36.0587 31.9046 36.2446C31.6412 36.415 31.3417 36.5803 31.0216 36.7145C31.0112 36.7249 30.9958 36.7249 30.9854 36.7352C30.6963 36.854 30.3864 36.9417 30.0663 37.0089C29.7306 37.0708 29.395 37.107 29.0387 37.107C28.6824 37.107 28.3416 37.0708 28.0111 37.0089C27.6754 36.9469 27.3553 36.8436 27.0506 36.7197C26.7305 36.5854 26.431 36.4305 26.1676 36.2498C25.8939 36.0691 25.6409 35.8573 25.4137 35.6301C25.1865 35.3926 24.9851 35.1499 24.8044 34.8762C24.634 34.6129 24.4687 34.3134 24.3345 33.9932C24.3241 33.9829 24.3241 33.9674 24.3138 33.9571C24.195 33.6679 24.1073 33.3581 24.0401 33.0379C23.9782 32.7023 23.942 32.3666 23.942 32.0103C23.942 31.654 23.9782 31.3132 24.0401 30.9827C24.1021 30.6471 24.2054 30.3269 24.3293 30.0223C24.4636 29.7021 24.6185 29.4026 24.7992 29.1393C24.9696 28.8656 25.1813 28.6126 25.4085 28.3853C25.6461 28.1478 25.8888 27.9516 26.1625 27.7657C26.4258 27.5953 26.7253 27.43 27.0455 27.2906C27.0558 27.2803 27.0713 27.2803 27.0816 27.27C27.3811 27.1512 27.6909 27.0634 28.0059 26.9963C28.3416 26.9343 28.6772 26.8982 29.0335 26.8982C29.3898 26.8982 29.7306 26.9343 30.0611 26.9963C30.3968 27.0583 30.7169 27.1615 31.0216 27.2855C31.3417 27.4197 31.6412 27.5746 31.9046 27.7605C32.1783 27.9413 32.4313 28.153 32.6585 28.3802C32.8857 28.6177 33.0871 28.8604 33.2678 29.1341C33.4382 29.3974 33.6035 29.697 33.7377 30.0171C33.7481 30.0274 33.7481 30.0429 33.7584 30.0533C33.8772 30.3424 33.9649 30.6523 34.0321 30.9724C34.0992 31.3081 34.1353 31.6437 34.1353 32Z" fill="currentColor" stroke="currentColor" stroke-width="0.5" stroke-miterlimit="2.6131"/>
    </symbol>

    <symbol id="desktop-smartphone-transfer-icon" viewBox="0 0 85 64" fill="none"  xmlns="http://www.w3.org/2000/svg">
        <path fill-rule="evenodd" clip-rule="evenodd" d="M62.124 17.9621H79.4077C80.7237 17.9621 81.9243 18.4979 82.779 19.3594C83.6473 20.2277 84.1764 21.4215 84.1764 22.7307V59.2382C84.1764 60.5541 83.6405 61.7547 82.779 62.6094C81.9108 63.4777 80.7169 64.0068 79.4077 64.0068H62.124C60.808 64.0068 59.6074 63.4709 58.7527 62.6094C57.8845 61.7412 57.3554 60.5473 57.3554 59.2382V22.7239C57.3554 21.4079 57.8912 20.2073 58.7527 19.3526C59.621 18.4844 60.808 17.9621 62.124 17.9621ZM77.7119 38.7663L69.6873 40.3671L71.3085 37.9659C68.7105 35.3068 65.8616 34.3843 62.5039 35.4561C66.004 30.9452 70.7659 30.8435 74.5441 33.1701L76.1992 30.7214L77.7119 38.7663ZM39.6918 26.7328L47.7164 25.132L46.0952 27.5332C48.6932 30.1923 51.5421 31.1148 54.8998 30.043C51.3997 34.5539 46.6378 34.6556 42.8596 32.329L41.2044 34.7777L39.6918 26.7328ZM2.89262 0H74.8765C76.0161 0 76.9454 0.929306 76.9454 2.06889V14.5772H72.5499V6.16598C72.5499 5.16206 71.7291 4.3345 70.7184 4.3345H7.04397C6.04005 4.3345 5.2125 5.15527 5.2125 6.16598V41.3575C5.2125 42.3614 6.03327 43.189 7.04397 43.189H52.8513V51.8241H2.89262C1.75304 51.8241 0.82373 50.8947 0.82373 49.7552V2.06889C0.82373 0.929306 1.75304 0 2.89262 0ZM48.2658 54.6798C48.3133 57.929 49.6496 60.8322 53.2786 63.125H24.4905C27.387 61.0221 29.5101 58.4649 29.5033 54.6798H48.2658ZM38.8846 44.8509C40.3498 44.8509 41.5436 46.0379 41.5436 47.5099C41.5436 48.9751 40.3498 50.1689 38.8846 50.1689C37.4194 50.1689 36.2255 48.9819 36.2255 47.5099C36.2255 46.0447 37.4126 44.8509 38.8846 44.8509ZM70.7591 58.146C71.8376 58.146 72.7194 59.0143 72.7194 60.1064C72.7194 61.1849 71.8512 62.0668 70.7591 62.0668C69.6805 62.0668 68.7987 61.1985 68.7987 60.1064C68.7987 59.0279 69.667 58.146 70.7591 58.146ZM59.3632 56.6537H82.1617V24.4672H59.3632V56.6537Z" fill="currentColor"/>
    </symbol>

    <symbol id="edit-list-icon" viewBox="0 0 57 64" fill="none" xmlns="http://www.w3.org/2000/svg">
        <path fill-rule="evenodd" clip-rule="evenodd" d="M21.3073 33.6354C20.5469 33.6354 19.9323 32.901 19.9323 32C19.9323 31.0938 20.5469 30.3646 21.3073 30.3646H39.4792C40.2396 30.3646 40.8542 31.099 40.8542 32C40.8542 32.9062 40.2396 33.6354 39.4792 33.6354H21.3073ZM25.0312 60.7188C25.9375 60.7188 26.6719 61.4531 26.6719 62.3594C26.6719 63.2656 25.9375 64 25.0312 64H4.48958C3.4375 64 2.48438 63.5729 1.79167 62.8802C1.09896 62.1875 0.671875 61.2344 0.671875 60.1823V3.81771C0.671875 2.76563 1.09896 1.8125 1.79167 1.11979C2.48438 0.427083 3.4375 0 4.48958 0H51.375C52.4271 0 53.3802 0.432292 54.0729 1.11979C54.7656 1.8125 55.1927 2.76563 55.1927 3.81771V29.9323C55.1927 30.8385 54.4583 31.5729 53.5521 31.5729C52.6458 31.5729 51.9115 30.8385 51.9115 29.9323V3.81771C51.9115 3.67188 51.849 3.53646 51.75 3.44271C51.651 3.34375 51.5208 3.28125 51.375 3.28125H4.48958C4.34375 3.28125 4.20833 3.34375 4.10937 3.4375C4.01562 3.54167 3.95312 3.67188 3.95312 3.81771V60.1771C3.95312 60.3229 4.01562 60.4583 4.10937 60.5521C4.20833 60.651 4.34375 60.7135 4.48958 60.7135H25.0312V60.7188ZM52.0781 38.7188C51.8125 38.4635 51.5052 38.3438 51.151 38.349C50.7969 38.3542 50.4948 38.4896 50.2448 38.7552L48.2083 40.875L53.9219 46.3906L55.9792 44.25C56.224 44 56.3281 43.6771 56.3229 43.3229C56.3177 42.974 56.1927 42.6563 55.9427 42.4167L52.0781 38.7188ZM41.4062 59.3802C40.651 59.6198 39.901 59.8698 39.151 60.1146C38.3958 60.3646 37.6458 60.6198 36.8958 60.8698C35.1198 61.4531 34.125 61.776 33.9167 61.8333C33.7135 61.8958 33.8333 61.0625 34.2812 59.3281L35.6927 53.8854L46.3958 42.75L52.1042 48.2448L41.4062 59.3802ZM21.3073 45.2865C20.5469 45.2865 19.9271 44.5417 19.9271 43.625C19.9271 42.7083 20.5469 41.9635 21.3073 41.9635H30.2604C31.0208 41.9635 31.6406 42.7083 31.6406 43.625C31.6406 44.5417 31.0208 45.2865 30.2604 45.2865H21.3073ZM21.3073 22.0104C20.5469 22.0104 19.9323 21.276 19.9323 20.375C19.9323 19.4688 20.5469 18.7396 21.3073 18.7396H39.4792C40.2396 18.7396 40.8542 19.474 40.8542 20.375C40.8542 21.2813 40.2396 22.0104 39.4792 22.0104H21.3073ZM13.4219 41.3854C14.4948 41.3854 15.3594 42.2552 15.3594 43.3229C15.3594 44.3958 14.4896 45.2604 13.4219 45.2604C12.349 45.2604 11.4844 44.3906 11.4844 43.3229C11.4844 42.2552 12.3542 41.3854 13.4219 41.3854ZM13.4219 29.9167C14.4948 29.9167 15.3594 30.7865 15.3594 31.8542C15.3594 32.9271 14.4896 33.7917 13.4219 33.7917C12.349 33.7917 11.4844 32.9219 11.4844 31.8542C11.4844 30.7865 12.3542 29.9167 13.4219 29.9167ZM13.4219 18.4479C14.4948 18.4479 15.3594 19.3177 15.3594 20.3854C15.3594 21.4583 14.4896 22.3229 13.4219 22.3229C12.349 22.3229 11.4844 21.4531 11.4844 20.3854C11.4844 19.3125 12.3542 18.4479 13.4219 18.4479Z" fill="currentColor"/>
    </symbol>

    <symbol id="target-icon" viewBox="0 0 66 64" fill="none" xmlns="http://www.w3.org/2000/svg">
        <path d="M32.1922 0H32.197V0.00106797C35.3486 0.00160196 38.3944 0.457627 41.2694 1.3072C41.7292 1.44283 42.1932 1.59235 42.6604 1.75361C45.0249 2.57168 47.2602 3.65728 49.3305 4.97303C49.4763 5.0654 49.5195 5.25871 49.4277 5.40449C49.4181 5.4189 49.4068 5.43332 49.3956 5.44614L47.1059 8.382C47.0044 8.51229 46.8197 8.54006 46.6851 8.44875L46.6798 8.44555C46.0977 8.08617 45.4965 7.74602 44.8792 7.42616C44.2571 7.1047 43.6248 6.80674 42.9835 6.53494L42.9824 6.5344C39.6685 5.12842 36.0219 4.35093 32.1916 4.35093H32.1884V4.34986C28.3725 4.34986 24.735 5.12468 21.4275 6.52373C20.8871 6.75227 20.3569 6.99684 19.8389 7.25582C17.1652 8.59293 14.7366 10.3535 12.6407 12.4494L12.6386 12.4515L12.6242 12.4649C11.9289 13.1612 11.2705 13.8944 10.6527 14.6612C10.0311 15.4328 9.44857 16.2396 8.91084 17.0769C6.14639 21.3809 4.54229 26.5029 4.54229 31.9997V32.0029H4.54122C4.54122 35.8188 5.31604 39.4563 6.71509 42.7639C6.94363 43.3048 7.1882 43.8345 7.44718 44.3525C8.78429 47.0256 10.5448 49.4547 12.6413 51.5506L12.6434 51.5527L12.6552 51.565C13.3515 52.2608 14.0857 52.9198 14.8531 53.5381C15.6247 54.1602 16.4315 54.7423 17.2693 55.28C21.5733 58.0444 26.6958 59.6485 32.1922 59.6485H32.1954V59.6501C36.0123 59.6496 39.6488 58.8753 42.9563 57.4763C43.4972 57.2477 44.0269 57.0032 44.5449 56.7442C47.2186 55.4071 49.6477 53.6465 51.743 51.5506L51.7457 51.5479L51.7617 51.5325C52.4559 50.8367 53.1138 50.1046 53.7311 49.3388C54.3532 48.5672 54.9352 47.7598 55.4729 46.9225C58.2379 42.6186 59.8415 37.4966 59.8415 32.0003V31.9949H59.8431C59.8426 29.6886 59.559 27.4448 59.0245 25.3003C58.9359 24.9431 58.8424 24.5965 58.7452 24.2612C58.2315 22.4953 57.5453 20.8015 56.7086 19.2001C56.636 19.0618 56.6776 18.8941 56.8004 18.8044L59.7593 16.465C59.8938 16.3582 60.0898 16.3811 60.1961 16.5162C60.2057 16.528 60.2137 16.5408 60.2206 16.5536H60.2217L60.2238 16.5579L60.227 16.5643C60.58 17.204 60.9137 17.8592 61.224 18.5272C61.5348 19.1958 61.8226 19.8755 62.0864 20.5639C63.4464 24.1159 64.1919 27.9724 64.1919 32.0008V32.004H64.1908C64.1903 36.4206 63.2943 40.63 61.6752 44.4571C61.413 45.0782 61.13 45.6917 60.8272 46.2956C59.2771 49.3954 57.2404 52.2064 54.8193 54.628L54.8172 54.6301L54.8055 54.6408C53.9981 55.4477 53.1474 56.2107 52.2578 56.9279C51.3644 57.6482 50.431 58.321 49.4629 58.9431C44.4808 62.1428 38.552 64.0005 32.1916 64.0005H32.1884V63.9995C27.7718 63.9989 23.5624 63.1029 19.7353 61.4838C19.1143 61.2217 18.5007 60.9381 17.8962 60.6353C14.797 59.0857 11.9855 57.0486 9.56391 54.628L9.56177 54.6253L9.54682 54.6098C8.74157 53.8035 7.97957 52.9545 7.26402 52.0664C6.54421 51.1731 5.87085 50.2397 5.24929 49.2716C2.04964 44.2884 0.191895 38.3601 0.191895 32.0003V31.9965H0.192963C0.193496 27.5799 1.08953 23.371 2.70804 19.5434C2.97077 18.9224 3.25378 18.3094 3.55655 17.7044C5.10618 14.6051 7.14334 11.7942 9.56391 9.37255L9.56604 9.37041L9.57993 9.35813C10.3862 8.55234 11.2369 7.78928 12.1249 7.0732C13.0188 6.35338 13.9517 5.68002 14.9203 5.05846C19.904 1.85721 25.8324 0 32.1922 0ZM49.8885 8.70346L58.8435 0.146847L59.4399 5.91765L65.8083 6.71382L56.2189 16.0057L51.5529 16.4062L32.9339 33.7234L31.2182 32.2459L48.8542 13.8233L49.8885 8.70346ZM32.1922 21.8711H32.2002V21.8721C32.8025 21.8727 33.3888 21.9245 33.9533 22.0238C34.0189 22.0355 34.1118 22.0531 34.2293 22.0772H34.2309C34.7008 22.1733 35.1611 22.3031 35.6081 22.4633C35.7704 22.5209 35.8548 22.6993 35.7966 22.8616C35.7854 22.8936 35.7683 22.9225 35.7485 22.9481L35.7491 22.9486L33.2495 26.1547C33.1795 26.2449 33.0684 26.285 32.9622 26.2711V26.2722L32.9478 26.27L32.8367 26.2572L32.8271 26.2556L32.731 26.2455L32.7229 26.2444C32.5563 26.23 32.3796 26.222 32.1922 26.222H32.189V26.2204C31.3928 26.2209 30.6324 26.3833 29.9414 26.6759C29.8271 26.7245 29.7161 26.7757 29.6098 26.8286C29.0534 27.1068 28.5461 27.4747 28.1066 27.9142L28.1045 27.9163L28.0901 27.9291C27.9491 28.0712 27.8156 28.2212 27.6896 28.3777C27.5598 28.5384 27.4381 28.7077 27.3254 28.8828C26.7487 29.781 26.4144 30.8517 26.4144 31.9997V32.0029H26.4128C26.4133 32.8002 26.5757 33.56 26.8683 34.2505C26.9169 34.3653 26.9682 34.4764 27.021 34.5821C27.2992 35.139 27.6677 35.6458 28.1066 36.0847L28.1088 36.0874L28.1216 36.1008C28.2636 36.2417 28.4137 36.3763 28.5701 36.5018C28.7309 36.6315 28.9001 36.7538 29.0753 36.8665C29.974 37.4427 31.0446 37.7775 32.1922 37.7775H32.1954V37.7785C32.9926 37.7785 33.753 37.6162 34.4429 37.3236C34.5577 37.275 34.6683 37.2237 34.7745 37.1709C35.3315 36.8921 35.8382 36.5242 36.2772 36.0847L36.2798 36.0821L36.2905 36.0719C36.3685 35.9934 36.4443 35.9139 36.5143 35.8354C36.5842 35.7569 36.6574 35.6688 36.7321 35.5737C37.0942 35.1145 37.3884 34.5997 37.5977 34.046C37.6217 33.9814 37.665 33.929 37.7189 33.8943L41.758 30.7C41.8931 30.5932 42.0886 30.6162 42.1954 30.7513C42.2327 30.7988 42.2536 30.8538 42.26 30.9099H42.2616L42.2642 30.9339L42.2653 30.9504L42.2781 31.0839V31.0877H42.2792L42.2909 31.2329V31.2356C42.3096 31.4919 42.3203 31.7466 42.3203 31.9997V32.0029H42.3187C42.3182 33.4004 42.0346 34.7321 41.5225 35.9432C41.4403 36.1381 41.35 36.3325 41.2539 36.5253C40.7621 37.5073 40.1181 38.3974 39.3529 39.1621L39.3508 39.1642L39.3337 39.1787C39.0817 39.4296 38.8168 39.6683 38.5407 39.891C38.2577 40.1185 37.9619 40.3321 37.6565 40.528C36.0791 41.5405 34.2037 42.1284 32.1916 42.1284H32.1884V42.1268C30.791 42.1263 29.4592 41.8427 28.2487 41.3306C28.0538 41.2484 27.8589 41.1582 27.6666 41.062C26.6846 40.5702 25.7945 39.9262 25.0298 39.1616L25.0277 39.1594L25.01 39.1402C24.7601 38.8887 24.523 38.6244 24.3009 38.3488C24.0729 38.0658 23.8598 37.7705 23.6633 37.4646C22.6509 35.8877 22.063 34.0118 22.063 32.0003V31.9965H22.064C22.0646 30.5996 22.3486 29.2679 22.8602 28.0573C22.943 27.8624 23.0327 27.668 23.1288 27.4753C23.6195 26.4949 24.2635 25.6052 25.0293 24.8395L25.0298 24.839L25.0293 24.8384L25.0314 24.8363C25.285 24.5832 25.5558 24.3402 25.842 24.1095C26.125 23.8815 26.4203 23.6685 26.7263 23.472C28.3047 22.459 30.1812 21.8711 32.1922 21.8711ZM32.7224 26.2444C32.5585 26.2241 32.4389 26.0789 32.449 25.9144L32.7224 26.2444ZM32.1922 10.8453H32.1975V10.8464C34.09 10.8469 35.9231 11.0957 37.6645 11.5608C37.948 11.6367 38.23 11.7184 38.5092 11.8059C39.943 12.2534 41.3132 12.8515 42.6001 13.5804C42.7496 13.6653 42.8025 13.8559 42.7176 14.0054C42.7096 14.0182 42.7016 14.0316 42.692 14.0433L42.6904 14.0449L40.3707 17.0203C40.2735 17.1442 40.101 17.1752 39.9686 17.0988L39.9611 17.0951C39.6472 16.9311 39.3198 16.7725 38.9797 16.623C38.6374 16.4719 38.2935 16.3331 37.9485 16.2071C36.1549 15.5524 34.2154 15.1951 32.1916 15.1951H32.1884V15.1941C29.8693 15.1941 27.6591 15.6656 25.6487 16.5157C25.3315 16.6503 25.009 16.7992 24.6832 16.9616L24.6587 16.9728C23.0444 17.7839 21.577 18.8492 20.3088 20.1169L20.3067 20.119L20.2944 20.1313C19.8741 20.5526 19.4753 20.998 19.1009 21.4626C18.7234 21.9314 18.3694 22.4221 18.0426 22.931C16.3632 25.5465 15.3886 28.6596 15.3886 31.9997V32.0029H15.3876C15.3876 34.322 15.8591 36.5328 16.7092 38.5427C16.848 38.8716 16.997 39.1941 17.154 39.5081C17.9662 41.132 19.0363 42.6079 20.3104 43.882L20.3125 43.8842C20.7408 44.313 21.1899 44.7166 21.6555 45.0915C22.1244 45.469 22.6151 45.8231 23.124 46.1499C25.7395 47.8298 28.8531 48.8038 32.1927 48.8038H32.1959V48.8049C34.515 48.8049 36.7257 48.3339 38.7362 47.4838C39.0651 47.3444 39.3876 47.1959 39.7016 47.0384C41.3255 46.2262 42.8014 45.1567 44.0755 43.882L44.0777 43.8799C44.5064 43.4511 44.9101 43.0025 45.285 42.5369C45.6625 42.0675 46.0166 41.5773 46.3434 41.0679C48.0238 38.4519 48.9983 35.3388 48.9983 31.9997H48.9973V31.9917H48.9983C48.9983 30.9553 48.9033 29.9385 48.7228 28.9528C48.6956 28.8054 48.6635 28.6442 48.6267 28.4727C48.4521 27.6531 48.2177 26.858 47.9309 26.0933C47.8796 25.9561 47.9309 25.8055 48.0468 25.7264L51.0708 23.3353C51.2059 23.2285 51.4013 23.2514 51.5076 23.3865C51.5236 23.4073 51.5364 23.4282 51.5465 23.4506L51.5492 23.4559L51.5513 23.4602L51.5519 23.4597C51.7094 23.8169 51.8611 24.1886 52.0058 24.5736C52.1483 24.9538 52.2797 25.3356 52.3977 25.7179C53.0145 27.7038 53.3471 29.8136 53.3471 31.9992V32.0024H53.3455C53.3455 34.9217 52.7533 37.7043 51.6832 40.2338C51.5102 40.6434 51.3223 41.0492 51.122 41.4497C50.0973 43.4992 48.7511 45.3574 47.1508 46.9573L47.1481 46.9594L47.1363 46.9706C46.6034 47.5019 46.0427 48.006 45.4564 48.4786C44.8658 48.9549 44.2485 49.3997 43.6088 49.8103C40.3141 51.926 36.3952 53.1536 32.1916 53.1536H32.1884C29.2691 53.1531 26.4865 52.5609 23.9565 51.4908C23.5469 51.3173 23.1411 51.1298 22.7406 50.9296C20.6917 49.9043 18.8329 48.5587 17.2325 46.9583L17.2304 46.9562L17.2154 46.9402C16.6852 46.4088 16.1827 45.8492 15.7117 45.264C15.2354 44.6734 14.7906 44.0561 14.3794 43.4164C12.2637 40.1222 11.0361 36.2027 11.0361 31.9997V31.9965H11.0372C11.0377 29.0772 11.6304 26.2946 12.7006 23.7646C12.8736 23.355 13.061 22.9492 13.2612 22.5487C14.2854 20.5008 15.6316 18.6431 17.232 17.0422L17.2325 17.0417L17.232 17.0411L17.2341 17.039L17.248 17.0262C17.7798 16.4949 18.3405 15.9919 18.9258 15.5203C19.5169 15.044 20.1337 14.5992 20.7734 14.1886C24.0691 12.0729 27.9891 10.8453 32.1922 10.8453Z" fill="currentColor"/>
    </symbol>

    <symbol id="maintenance-icon" viewBox="0 0 55 64" fill="none" xmlns="http://www.w3.org/2000/svg">
        <path fill-rule="evenodd" clip-rule="evenodd" d="M0.460729 50.5208C-0.304896 53.5104 0.387812 56.8802 2.23677 59.776C4.60135 47.4635 19.0961 52.6979 11.6534 64C18.0961 63.4792 21.5753 58.5052 21.4399 52.3802C21.3774 49.4948 21.4399 47.9271 21.893 46.6146C22.1046 46.0199 22.3973 45.4573 22.7628 44.9427C22.4543 44.2142 22.2933 43.4318 22.2889 42.6406V42.4896C22.302 41.586 22.5155 40.6966 22.9139 39.8854L19.0441 36.1198L17.9711 37.5417C16.9192 38.7929 15.7584 39.9485 14.5024 40.9948C13.7578 41.4604 12.9537 41.8231 12.1118 42.0729C6.92427 43.849 2.05448 44.3281 0.460729 50.5208ZM30.7524 39.5833L7.83573 17.2708L4.71073 16.7188C4.33611 16.6483 3.99133 16.4668 3.72115 16.1979L1.05969 13.5938C0.700177 13.2423 0.494503 12.7628 0.48767 12.2601C0.480838 11.7574 0.673403 11.2725 1.02323 10.9115L4.23677 7.66667C4.59214 7.31236 5.07349 7.1134 5.57531 7.1134C6.07713 7.1134 6.55848 7.31236 6.91385 7.66667L9.27323 10.0052C9.53758 10.2642 9.71888 10.596 9.79406 10.9583L10.8357 14.7656L33.4868 36.8698L35.7941 34.5469C35.828 34.5122 35.8685 34.4847 35.9132 34.4659C35.958 34.4471 36.006 34.4374 36.0545 34.4374C36.103 34.4374 36.151 34.4471 36.1957 34.4659C36.2404 34.4847 36.281 34.5122 36.3149 34.5469L37.8201 36.0365C37.884 36.0986 37.9229 36.182 37.9295 36.2708C37.992 36.7344 38.0284 37.1094 38.0649 37.4271C38.143 38.2031 38.1847 38.5938 38.3253 38.7292C38.4659 38.8646 38.8461 38.8854 39.6014 38.9375C39.9243 38.9375 40.3149 38.9896 40.8357 39.0417C40.9206 39.0479 41.0002 39.085 41.0597 39.1458L52.6326 50.8125C53.5676 51.5737 54.2508 52.5996 54.5928 53.7557C54.9348 54.9118 54.9197 56.1443 54.5493 57.2917C54.2725 58.1481 53.8122 58.9337 53.2003 59.5938C52.5939 60.2537 51.8411 60.7621 51.0024 61.0781C49.0493 61.8021 46.6066 61.4219 44.2993 59.0938L33.242 47.9167C33.1813 47.8544 33.1429 47.7738 33.1326 47.6875C33.0389 47.0573 32.9816 46.5469 32.9347 46.125C32.8357 45.2865 32.7836 44.849 32.617 44.6875C32.4503 44.526 31.9607 44.4948 30.9816 44.4635C30.643 44.4635 30.2472 44.4635 29.7836 44.4167C29.6937 44.4127 29.6083 44.3756 29.5441 44.3125L28.0649 42.849C27.9962 42.7797 27.9576 42.6861 27.9576 42.5885C27.9576 42.491 27.9962 42.3974 28.0649 42.3281L30.7576 39.6094L30.7524 39.5833ZM36.7628 47.2083C36.6768 47.1231 36.6086 47.0217 36.562 46.91C36.5154 46.7982 36.4915 46.6784 36.4915 46.5573C36.4915 46.4362 36.5154 46.3164 36.562 46.2046C36.6086 46.0929 36.6768 45.9915 36.7628 45.9063C36.9365 45.7336 37.1715 45.6366 37.4165 45.6366C37.6614 45.6366 37.8964 45.7336 38.0701 45.9063L48.0701 56.0417C48.2442 56.2143 48.3425 56.4491 48.3435 56.6942C48.3444 56.9394 48.248 57.1749 48.0753 57.349C47.9026 57.523 47.6679 57.6213 47.4227 57.6223C47.1776 57.6233 46.9421 57.5268 46.768 57.3542L36.7628 47.2083ZM39.5128 44.4271C39.3388 44.2551 39.2402 44.021 39.2387 43.7764C39.2372 43.5317 39.333 43.2964 39.505 43.1224C39.677 42.9483 39.911 42.8498 40.1557 42.8483C40.4004 42.8468 40.6356 42.9426 40.8097 43.1146L50.8357 53.2604C50.9219 53.3456 50.9905 53.4469 51.0375 53.5585C51.0845 53.6702 51.1091 53.79 51.1098 53.9111C51.1106 54.0323 51.0874 54.1524 51.0417 54.2646C50.996 54.3768 50.9287 54.4789 50.8435 54.5651C50.7584 54.6513 50.6571 54.7199 50.5454 54.7669C50.4338 54.8139 50.314 54.8385 50.1928 54.8392C50.0717 54.84 49.9516 54.8168 49.8394 54.7711C49.7271 54.7254 49.625 54.6581 49.5389 54.5729L39.5128 44.4271ZM35.0493 28.8333L38.143 24.7865C41.867 19.7292 51.5753 22.7031 53.9555 13.4583C54.7159 10.4896 54.0232 7.125 52.1899 4.22396C49.8253 16.5365 35.3357 11.3021 42.7784 0C36.3357 0.520833 32.8566 5.49479 32.992 11.6198C33.0545 14.3073 33.8097 16.5 31.2628 19.9063L28.2784 23.8698L33.7472 29.1979C34.166 29.0275 34.6028 28.9052 35.0493 28.8333Z" fill="currentColor"/>
    </symbol>


</svg>
